<?xml version="1.0" encoding="UTF-8" standalone="no"?>
<!DOCTYPE svg PUBLIC "-//W3C//DTD SVG 1.1//EN"
 "http://www.w3.org/Graphics/SVG/1.1/DTD/svg11.dtd">
<!-- Generated by graphviz version 2.47.0 (20210316.0004)
 -->
<!-- Title: dbml Pages: 1 -->
<svg width="2465pt" height="1738pt"
 viewBox="0.00 0.00 2465.01 1737.78" xmlns="http://www.w3.org/2000/svg" xmlns:xlink="http://www.w3.org/1999/xlink">
<g id="graph0" class="graph" transform="scale(1 1) rotate(0) translate(4 1733.78)">
<title>dbml</title>
<!-- question_status -->
<g id="question_status" class="node">
<title>question_status</title>
<ellipse fill="none" stroke="black" stroke-width="0" cx="909.98" cy="-812.12" rx="264.42" ry="130.22"/>
<polygon fill="#29235c" stroke="transparent" points="724.98,-842.12 724.98,-902.12 1094.98,-902.12 1094.98,-842.12 724.98,-842.12"/>
<polygon fill="none" stroke="#29235c" points="724.98,-842.12 724.98,-902.12 1094.98,-902.12 1094.98,-842.12 724.98,-842.12"/>
<text text-anchor="start" x="735.69" y="-863.32" font-family="Helvetica,sans-Serif" font-weight="bold" font-size="32.00" fill="#ffffff"> &#160;&#160;&#160;&#160;&#160;&#160;question_status &#160;&#160;&#160;&#160;&#160;&#160;</text>
<polygon fill="#e7e2dd" stroke="transparent" points="724.98,-782.12 724.98,-842.12 1094.98,-842.12 1094.98,-782.12 724.98,-782.12"/>
<polygon fill="none" stroke="#29235c" points="724.98,-782.12 724.98,-842.12 1094.98,-842.12 1094.98,-782.12 724.98,-782.12"/>
<text text-anchor="start" x="817.5" y="-803.32" font-family="Helvetica,sans-Serif" font-style="italic" font-size="32.00" fill="#1d71b8"> &#160;&#160;&#160;pending &#160;&#160;&#160;</text>
<polygon fill="#e7e2dd" stroke="transparent" points="724.98,-722.12 724.98,-782.12 1094.98,-782.12 1094.98,-722.12 724.98,-722.12"/>
<polygon fill="none" stroke="#29235c" points="724.98,-722.12 724.98,-782.12 1094.98,-782.12 1094.98,-722.12 724.98,-722.12"/>
<text text-anchor="start" x="805.06" y="-743.32" font-family="Helvetica,sans-Serif" font-style="italic" font-size="32.00" fill="#1d71b8"> &#160;&#160;&#160;answered &#160;&#160;&#160;</text>
<polygon fill="none" stroke="#29235c" stroke-width="2" points="723.98,-721.12 723.98,-903.12 1095.98,-903.12 1095.98,-721.12 723.98,-721.12"/>
</g>
<!-- role -->
<g id="role" class="node">
<title>role</title>
<ellipse fill="none" stroke="black" stroke-width="0" cx="1522.98" cy="-280.12" rx="143.59" ry="130.22"/>
<polygon fill="#29235c" stroke="transparent" points="1423.98,-310.12 1423.98,-370.12 1622.98,-370.12 1622.98,-310.12 1423.98,-310.12"/>
<polygon fill="none" stroke="#29235c" points="1423.98,-310.12 1423.98,-370.12 1622.98,-370.12 1622.98,-310.12 1423.98,-310.12"/>
<text text-anchor="start" x="1434.57" y="-331.32" font-family="Helvetica,sans-Serif" font-weight="bold" font-size="32.00" fill="#ffffff"> &#160;&#160;&#160;&#160;&#160;&#160;role &#160;&#160;&#160;&#160;&#160;&#160;</text>
<polygon fill="#e7e2dd" stroke="transparent" points="1423.98,-250.12 1423.98,-310.12 1622.98,-310.12 1622.98,-250.12 1423.98,-250.12"/>
<polygon fill="none" stroke="#29235c" points="1423.98,-250.12 1423.98,-310.12 1622.98,-310.12 1622.98,-250.12 1423.98,-250.12"/>
<text text-anchor="start" x="1456.8" y="-271.32" font-family="Helvetica,sans-Serif" font-style="italic" font-size="32.00" fill="#1d71b8"> &#160;&#160;&#160;user &#160;&#160;&#160;</text>
<polygon fill="#e7e2dd" stroke="transparent" points="1423.98,-190.12 1423.98,-250.12 1622.98,-250.12 1622.98,-190.12 1423.98,-190.12"/>
<polygon fill="none" stroke="#29235c" points="1423.98,-190.12 1423.98,-250.12 1622.98,-250.12 1622.98,-190.12 1423.98,-190.12"/>
<text text-anchor="start" x="1444.35" y="-211.32" font-family="Helvetica,sans-Serif" font-style="italic" font-size="32.00" fill="#1d71b8"> &#160;&#160;&#160;admin &#160;&#160;&#160;</text>
<polygon fill="none" stroke="#29235c" stroke-width="2" points="1422.48,-189.12 1422.48,-371.12 1623.48,-371.12 1623.48,-189.12 1422.48,-189.12"/>
</g>
<!-- article -->
<g id="article" class="node">
<title>article</title>
<ellipse fill="none" stroke="black" stroke-width="0" cx="909.98" cy="-1345.12" rx="281.36" ry="384.83"/>
<polygon fill="#1d71b8" stroke="transparent" points="712.98,-1555.12 712.98,-1615.12 1106.98,-1615.12 1106.98,-1555.12 712.98,-1555.12"/>
<polygon fill="none" stroke="#29235c" points="712.98,-1555.12 712.98,-1615.12 1106.98,-1615.12 1106.98,-1555.12 712.98,-1555.12"/>
<text text-anchor="start" x="805.07" y="-1576.32" font-family="Helvetica,sans-Serif" font-weight="bold" font-size="32.00" fill="#ffffff"> &#160;&#160;&#160;&#160;&#160;&#160;article &#160;&#160;&#160;&#160;&#160;&#160;</text>
<polygon fill="#e7e2dd" stroke="transparent" points="712.98,-1495.12 712.98,-1555.12 1106.98,-1555.12 1106.98,-1495.12 712.98,-1495.12"/>
<polygon fill="none" stroke="#29235c" points="712.98,-1495.12 712.98,-1555.12 1106.98,-1555.12 1106.98,-1495.12 712.98,-1495.12"/>
<text text-anchor="start" x="723.98" y="-1516.32" font-family="Helvetica,sans-Serif" font-weight="bold" font-size="32.00" fill="#29235c">id</text>
<text text-anchor="start" x="748.87" y="-1516.32" font-family="Helvetica,sans-Serif" font-size="32.00" fill="#29235c"> &#160;&#160;&#160;</text>
<text text-anchor="start" x="980.46" y="-1516.32" font-family="Helvetica,sans-Serif" font-style="italic" font-size="32.00" fill="#29235c">serial</text>
<text text-anchor="start" x="1056.89" y="-1516.32" font-family="Helvetica,sans-Serif" font-size="32.00" fill="#29235c"> </text>
<text text-anchor="start" x="1065.79" y="-1516.32" font-family="Helvetica,sans-Serif" font-weight="bold" font-size="32.00" fill="#29235c">(!)</text>
<polygon fill="#e7e2dd" stroke="transparent" points="712.98,-1435.12 712.98,-1495.12 1106.98,-1495.12 1106.98,-1435.12 712.98,-1435.12"/>
<polygon fill="none" stroke="#29235c" points="712.98,-1435.12 712.98,-1495.12 1106.98,-1495.12 1106.98,-1435.12 712.98,-1435.12"/>
<text text-anchor="start" x="723.98" y="-1455.32" font-family="Helvetica,sans-Serif" font-size="32.00" fill="#29235c">title &#160;&#160;&#160;</text>
<text text-anchor="start" x="875.55" y="-1456.32" font-family="Helvetica,sans-Serif" font-style="italic" font-size="32.00" fill="#29235c">varchar(255)</text>
<text text-anchor="start" x="1056.89" y="-1456.32" font-family="Helvetica,sans-Serif" font-size="32.00" fill="#29235c"> </text>
<text text-anchor="start" x="1065.79" y="-1456.32" font-family="Helvetica,sans-Serif" font-weight="bold" font-size="32.00" fill="#29235c">(!)</text>
<polygon fill="#e7e2dd" stroke="transparent" points="712.98,-1375.12 712.98,-1435.12 1106.98,-1435.12 1106.98,-1375.12 712.98,-1375.12"/>
<polygon fill="none" stroke="#29235c" points="712.98,-1375.12 712.98,-1435.12 1106.98,-1435.12 1106.98,-1375.12 712.98,-1375.12"/>
<text text-anchor="start" x="723.98" y="-1395.32" font-family="Helvetica,sans-Serif" font-size="32.00" fill="#29235c">authors &#160;&#160;&#160;</text>
<text text-anchor="start" x="1005.32" y="-1396.32" font-family="Helvetica,sans-Serif" font-style="italic" font-size="32.00" fill="#29235c">text</text>
<text text-anchor="start" x="1056.89" y="-1396.32" font-family="Helvetica,sans-Serif" font-size="32.00" fill="#29235c"> </text>
<text text-anchor="start" x="1065.79" y="-1396.32" font-family="Helvetica,sans-Serif" font-weight="bold" font-size="32.00" fill="#29235c">(!)</text>
<polygon fill="#e7e2dd" stroke="transparent" points="712.98,-1315.12 712.98,-1375.12 1106.98,-1375.12 1106.98,-1315.12 712.98,-1315.12"/>
<polygon fill="none" stroke="#29235c" points="712.98,-1315.12 712.98,-1375.12 1106.98,-1375.12 1106.98,-1315.12 712.98,-1315.12"/>
<text text-anchor="start" x="723.98" y="-1335.32" font-family="Helvetica,sans-Serif" font-size="32.00" fill="#29235c">abstract &#160;&#160;&#160;</text>
<text text-anchor="start" x="1005.32" y="-1336.32" font-family="Helvetica,sans-Serif" font-style="italic" font-size="32.00" fill="#29235c">text</text>
<text text-anchor="start" x="1056.89" y="-1336.32" font-family="Helvetica,sans-Serif" font-size="32.00" fill="#29235c"> </text>
<text text-anchor="start" x="1065.79" y="-1336.32" font-family="Helvetica,sans-Serif" font-weight="bold" font-size="32.00" fill="#29235c">(!)</text>
<polygon fill="#e7e2dd" stroke="transparent" points="712.98,-1255.12 712.98,-1315.12 1106.98,-1315.12 1106.98,-1255.12 712.98,-1255.12"/>
<polygon fill="none" stroke="#29235c" points="712.98,-1255.12 712.98,-1315.12 1106.98,-1315.12 1106.98,-1255.12 712.98,-1255.12"/>
<text text-anchor="start" x="723.98" y="-1275.32" font-family="Helvetica,sans-Serif" font-size="32.00" fill="#29235c">start_date &#160;&#160;&#160;</text>
<text text-anchor="start" x="909.33" y="-1276.32" font-family="Helvetica,sans-Serif" font-style="italic" font-size="32.00" fill="#29235c">timestamp</text>
<text text-anchor="start" x="1056.89" y="-1276.32" font-family="Helvetica,sans-Serif" font-size="32.00" fill="#29235c"> </text>
<text text-anchor="start" x="1065.79" y="-1276.32" font-family="Helvetica,sans-Serif" font-weight="bold" font-size="32.00" fill="#29235c">(!)</text>
<polygon fill="#e7e2dd" stroke="transparent" points="712.98,-1195.12 712.98,-1255.12 1106.98,-1255.12 1106.98,-1195.12 712.98,-1195.12"/>
<polygon fill="none" stroke="#29235c" points="712.98,-1195.12 712.98,-1255.12 1106.98,-1255.12 1106.98,-1195.12 712.98,-1195.12"/>
<text text-anchor="start" x="723.98" y="-1215.32" font-family="Helvetica,sans-Serif" font-size="32.00" fill="#29235c">end_date &#160;&#160;&#160;</text>
<text text-anchor="start" x="909.33" y="-1216.32" font-family="Helvetica,sans-Serif" font-style="italic" font-size="32.00" fill="#29235c">timestamp</text>
<text text-anchor="start" x="1056.89" y="-1216.32" font-family="Helvetica,sans-Serif" font-size="32.00" fill="#29235c"> </text>
<text text-anchor="start" x="1065.79" y="-1216.32" font-family="Helvetica,sans-Serif" font-weight="bold" font-size="32.00" fill="#29235c">(!)</text>
<polygon fill="#e7e2dd" stroke="transparent" points="712.98,-1135.12 712.98,-1195.12 1106.98,-1195.12 1106.98,-1135.12 712.98,-1135.12"/>
<polygon fill="none" stroke="#29235c" points="712.98,-1135.12 712.98,-1195.12 1106.98,-1195.12 1106.98,-1135.12 712.98,-1135.12"/>
<text text-anchor="start" x="723.72" y="-1155.32" font-family="Helvetica,sans-Serif" font-size="32.00" fill="#29235c">conference_id &#160;&#160;&#160;</text>
<text text-anchor="start" x="959.54" y="-1156.32" font-family="Helvetica,sans-Serif" font-style="italic" font-size="32.00" fill="#29235c">integer</text>
<text text-anchor="start" x="1057.34" y="-1156.32" font-family="Helvetica,sans-Serif" font-size="32.00" fill="#29235c"> </text>
<text text-anchor="start" x="1066.23" y="-1156.32" font-family="Helvetica,sans-Serif" font-weight="bold" font-size="32.00" fill="#29235c">(!)</text>
<polygon fill="#e7e2dd" stroke="transparent" points="712.98,-1075.12 712.98,-1135.12 1106.98,-1135.12 1106.98,-1075.12 712.98,-1075.12"/>
<polygon fill="none" stroke="#29235c" points="712.98,-1075.12 712.98,-1135.12 1106.98,-1135.12 1106.98,-1075.12 712.98,-1075.12"/>
<text text-anchor="start" x="723.98" y="-1095.32" font-family="Helvetica,sans-Serif" font-size="32.00" fill="#29235c">track_id &#160;&#160;&#160;</text>
<text text-anchor="start" x="959.09" y="-1096.32" font-family="Helvetica,sans-Serif" font-style="italic" font-size="32.00" fill="#29235c">integer</text>
<text text-anchor="start" x="1056.89" y="-1096.32" font-family="Helvetica,sans-Serif" font-size="32.00" fill="#29235c"> </text>
<text text-anchor="start" x="1065.79" y="-1096.32" font-family="Helvetica,sans-Serif" font-weight="bold" font-size="32.00" fill="#29235c">(!)</text>
<polygon fill="none" stroke="#29235c" stroke-width="2" points="711.98,-1074.12 711.98,-1616.12 1107.98,-1616.12 1107.98,-1074.12 711.98,-1074.12"/>
</g>
<!-- conference -->
<g id="conference" class="node">
<title>conference</title>
<ellipse fill="none" stroke="black" stroke-width="0" cx="2148.71" cy="-1180.12" rx="308.1" ry="427.19"/>
<polygon fill="#1d71b8" stroke="transparent" points="1932.71,-1420.12 1932.71,-1480.12 2364.71,-1480.12 2364.71,-1420.12 1932.71,-1420.12"/>
<polygon fill="none" stroke="#29235c" points="1932.71,-1420.12 1932.71,-1480.12 2364.71,-1480.12 2364.71,-1420.12 1932.71,-1420.12"/>
<text text-anchor="start" x="2007.32" y="-1441.32" font-family="Helvetica,sans-Serif" font-weight="bold" font-size="32.00" fill="#ffffff"> &#160;&#160;&#160;&#160;&#160;&#160;conference &#160;&#160;&#160;&#160;&#160;&#160;</text>
<polygon fill="#e7e2dd" stroke="transparent" points="1932.71,-1360.12 1932.71,-1420.12 2364.71,-1420.12 2364.71,-1360.12 1932.71,-1360.12"/>
<polygon fill="none" stroke="#29235c" points="1932.71,-1360.12 1932.71,-1420.12 2364.71,-1420.12 2364.71,-1360.12 1932.71,-1360.12"/>
<text text-anchor="start" x="1943.71" y="-1381.32" font-family="Helvetica,sans-Serif" font-weight="bold" font-size="32.00" fill="#29235c">id</text>
<text text-anchor="start" x="1968.6" y="-1381.32" font-family="Helvetica,sans-Serif" font-size="32.00" fill="#29235c"> &#160;&#160;&#160;</text>
<text text-anchor="start" x="2238.19" y="-1381.32" font-family="Helvetica,sans-Serif" font-style="italic" font-size="32.00" fill="#29235c">serial</text>
<text text-anchor="start" x="2314.62" y="-1381.32" font-family="Helvetica,sans-Serif" font-size="32.00" fill="#29235c"> </text>
<text text-anchor="start" x="2323.51" y="-1381.32" font-family="Helvetica,sans-Serif" font-weight="bold" font-size="32.00" fill="#29235c">(!)</text>
<polygon fill="#e7e2dd" stroke="transparent" points="1932.71,-1300.12 1932.71,-1360.12 2364.71,-1360.12 2364.71,-1300.12 1932.71,-1300.12"/>
<polygon fill="none" stroke="#29235c" points="1932.71,-1300.12 1932.71,-1360.12 2364.71,-1360.12 2364.71,-1300.12 1932.71,-1300.12"/>
<text text-anchor="start" x="1943.71" y="-1320.32" font-family="Helvetica,sans-Serif" font-size="32.00" fill="#29235c">name &#160;&#160;&#160;</text>
<text text-anchor="start" x="2133.27" y="-1321.32" font-family="Helvetica,sans-Serif" font-style="italic" font-size="32.00" fill="#29235c">varchar(255)</text>
<text text-anchor="start" x="2314.62" y="-1321.32" font-family="Helvetica,sans-Serif" font-size="32.00" fill="#29235c"> </text>
<text text-anchor="start" x="2323.51" y="-1321.32" font-family="Helvetica,sans-Serif" font-weight="bold" font-size="32.00" fill="#29235c">(!)</text>
<polygon fill="#e7e2dd" stroke="transparent" points="1932.71,-1240.12 1932.71,-1300.12 2364.71,-1300.12 2364.71,-1240.12 1932.71,-1240.12"/>
<polygon fill="none" stroke="#29235c" points="1932.71,-1240.12 1932.71,-1300.12 2364.71,-1300.12 2364.71,-1240.12 1932.71,-1240.12"/>
<text text-anchor="start" x="1943.51" y="-1260.32" font-family="Helvetica,sans-Serif" font-size="32.00" fill="#29235c">longitude &#160;&#160;&#160;</text>
<text text-anchor="start" x="2108.55" y="-1261.32" font-family="Helvetica,sans-Serif" font-style="italic" font-size="32.00" fill="#29235c">numeric(10, 6)</text>
<text text-anchor="start" x="2314.78" y="-1261.32" font-family="Helvetica,sans-Serif" font-size="32.00" fill="#29235c"> </text>
<text text-anchor="start" x="2323.67" y="-1261.32" font-family="Helvetica,sans-Serif" font-weight="bold" font-size="32.00" fill="#29235c">(!)</text>
<polygon fill="#e7e2dd" stroke="transparent" points="1932.71,-1180.12 1932.71,-1240.12 2364.71,-1240.12 2364.71,-1180.12 1932.71,-1180.12"/>
<polygon fill="none" stroke="#29235c" points="1932.71,-1180.12 1932.71,-1240.12 2364.71,-1240.12 2364.71,-1180.12 1932.71,-1180.12"/>
<text text-anchor="start" x="1943.71" y="-1200.32" font-family="Helvetica,sans-Serif" font-size="32.00" fill="#29235c">latitude &#160;&#160;&#160;</text>
<text text-anchor="start" x="2108.39" y="-1201.32" font-family="Helvetica,sans-Serif" font-style="italic" font-size="32.00" fill="#29235c">numeric(10, 6)</text>
<text text-anchor="start" x="2314.62" y="-1201.32" font-family="Helvetica,sans-Serif" font-size="32.00" fill="#29235c"> </text>
<text text-anchor="start" x="2323.51" y="-1201.32" font-family="Helvetica,sans-Serif" font-weight="bold" font-size="32.00" fill="#29235c">(!)</text>
<polygon fill="#e7e2dd" stroke="transparent" points="1932.71,-1120.12 1932.71,-1180.12 2364.71,-1180.12 2364.71,-1120.12 1932.71,-1120.12"/>
<polygon fill="none" stroke="#29235c" points="1932.71,-1120.12 1932.71,-1180.12 2364.71,-1180.12 2364.71,-1120.12 1932.71,-1120.12"/>
<text text-anchor="start" x="1943.71" y="-1140.32" font-family="Helvetica,sans-Serif" font-size="32.00" fill="#29235c">start_date &#160;&#160;&#160;</text>
<text text-anchor="start" x="2167.06" y="-1141.32" font-family="Helvetica,sans-Serif" font-style="italic" font-size="32.00" fill="#29235c">timestamp</text>
<text text-anchor="start" x="2314.62" y="-1141.32" font-family="Helvetica,sans-Serif" font-size="32.00" fill="#29235c"> </text>
<text text-anchor="start" x="2323.51" y="-1141.32" font-family="Helvetica,sans-Serif" font-weight="bold" font-size="32.00" fill="#29235c">(!)</text>
<polygon fill="#e7e2dd" stroke="transparent" points="1932.71,-1060.12 1932.71,-1120.12 2364.71,-1120.12 2364.71,-1060.12 1932.71,-1060.12"/>
<polygon fill="none" stroke="#29235c" points="1932.71,-1060.12 1932.71,-1120.12 2364.71,-1120.12 2364.71,-1060.12 1932.71,-1060.12"/>
<text text-anchor="start" x="1943.71" y="-1080.32" font-family="Helvetica,sans-Serif" font-size="32.00" fill="#29235c">end_date &#160;&#160;&#160;</text>
<text text-anchor="start" x="2167.06" y="-1081.32" font-family="Helvetica,sans-Serif" font-style="italic" font-size="32.00" fill="#29235c">timestamp</text>
<text text-anchor="start" x="2314.62" y="-1081.32" font-family="Helvetica,sans-Serif" font-size="32.00" fill="#29235c"> </text>
<text text-anchor="start" x="2323.51" y="-1081.32" font-family="Helvetica,sans-Serif" font-weight="bold" font-size="32.00" fill="#29235c">(!)</text>
<polygon fill="#e7e2dd" stroke="transparent" points="1932.71,-1000.12 1932.71,-1060.12 2364.71,-1060.12 2364.71,-1000.12 1932.71,-1000.12"/>
<polygon fill="none" stroke="#29235c" points="1932.71,-1000.12 1932.71,-1060.12 2364.71,-1060.12 2364.71,-1000.12 1932.71,-1000.12"/>
<text text-anchor="start" x="1943.71" y="-1020.32" font-family="Helvetica,sans-Serif" font-size="32.00" fill="#29235c">image_url &#160;&#160;&#160;</text>
<text text-anchor="start" x="2263.04" y="-1021.32" font-family="Helvetica,sans-Serif" font-style="italic" font-size="32.00" fill="#29235c">text</text>
<text text-anchor="start" x="2314.62" y="-1021.32" font-family="Helvetica,sans-Serif" font-size="32.00" fill="#29235c"> </text>
<text text-anchor="start" x="2323.51" y="-1021.32" font-family="Helvetica,sans-Serif" font-weight="bold" font-size="32.00" fill="#29235c">(!)</text>
<polygon fill="#e7e2dd" stroke="transparent" points="1932.71,-940.12 1932.71,-1000.12 2364.71,-1000.12 2364.71,-940.12 1932.71,-940.12"/>
<polygon fill="none" stroke="#29235c" points="1932.71,-940.12 1932.71,-1000.12 2364.71,-1000.12 2364.71,-940.12 1932.71,-940.12"/>
<text text-anchor="start" x="1943.71" y="-960.32" font-family="Helvetica,sans-Serif" font-size="32.00" fill="#29235c">description &#160;&#160;&#160;</text>
<text text-anchor="start" x="2263.04" y="-961.32" font-family="Helvetica,sans-Serif" font-style="italic" font-size="32.00" fill="#29235c">text</text>
<text text-anchor="start" x="2314.62" y="-961.32" font-family="Helvetica,sans-Serif" font-size="32.00" fill="#29235c"> </text>
<text text-anchor="start" x="2323.51" y="-961.32" font-family="Helvetica,sans-Serif" font-weight="bold" font-size="32.00" fill="#29235c">(!)</text>
<polygon fill="#e7e2dd" stroke="transparent" points="1932.71,-880.12 1932.71,-940.12 2364.71,-940.12 2364.71,-880.12 1932.71,-880.12"/>
<polygon fill="none" stroke="#29235c" points="1932.71,-880.12 1932.71,-940.12 2364.71,-940.12 2364.71,-880.12 1932.71,-880.12"/>
<text text-anchor="start" x="1943.71" y="-900.32" font-family="Helvetica,sans-Serif" font-size="32.00" fill="#29235c">city &#160;&#160;&#160;</text>
<text text-anchor="start" x="2263.04" y="-901.32" font-family="Helvetica,sans-Serif" font-style="italic" font-size="32.00" fill="#29235c">text</text>
<text text-anchor="start" x="2314.62" y="-901.32" font-family="Helvetica,sans-Serif" font-size="32.00" fill="#29235c"> </text>
<text text-anchor="start" x="2323.51" y="-901.32" font-family="Helvetica,sans-Serif" font-weight="bold" font-size="32.00" fill="#29235c">(!)</text>
<polygon fill="none" stroke="#29235c" stroke-width="2" points="1931.71,-879.12 1931.71,-1481.12 2365.71,-1481.12 2365.71,-879.12 1931.71,-879.12"/>
</g>
<!-- article&#45;&gt;conference -->
<!-- article&#45;&gt;conference -->
<g id="edge6" class="edge">
<title>article:e&#45;&gt;conference:w</title>
<path fill="none" stroke="#29235c" stroke-width="3" d="M1107.98,-1165.12C1191.13,-1165.12 1164.58,-1065.56 1241.55,-1034.12 1473.13,-939.51 1599.9,-890.05 1804.41,-1034.12 1938.83,-1128.81 1771.18,-1379.05 1921.35,-1389.76"/>
<polygon fill="#29235c" stroke="#29235c" stroke-width="3" points="1921.6,-1393.27 1931.71,-1390.12 1921.84,-1386.28 1921.6,-1393.27"/>
<text text-anchor="middle" x="1922.82" y="-1399.72" font-family="Helvetica,sans-Serif" font-size="32.00" fill="#29235c">1</text>
<text text-anchor="middle" x="1101.76" y="-1136.32" font-family="Helvetica,sans-Serif" font-size="32.00" fill="#29235c">*</text>
</g>
<!-- track -->
<g id="track" class="node">
<title>track</title>
<ellipse fill="none" stroke="black" stroke-width="0" cx="1522.98" cy="-1300.12" rx="281.36" ry="257.27"/>
<polygon fill="#1d71b8" stroke="transparent" points="1325.98,-1420.12 1325.98,-1480.12 1719.98,-1480.12 1719.98,-1420.12 1325.98,-1420.12"/>
<polygon fill="none" stroke="#29235c" points="1325.98,-1420.12 1325.98,-1480.12 1719.98,-1480.12 1719.98,-1420.12 1325.98,-1420.12"/>
<text text-anchor="start" x="1426.07" y="-1441.32" font-family="Helvetica,sans-Serif" font-weight="bold" font-size="32.00" fill="#ffffff"> &#160;&#160;&#160;&#160;&#160;&#160;track &#160;&#160;&#160;&#160;&#160;&#160;</text>
<polygon fill="#e7e2dd" stroke="transparent" points="1325.98,-1360.12 1325.98,-1420.12 1719.98,-1420.12 1719.98,-1360.12 1325.98,-1360.12"/>
<polygon fill="none" stroke="#29235c" points="1325.98,-1360.12 1325.98,-1420.12 1719.98,-1420.12 1719.98,-1360.12 1325.98,-1360.12"/>
<text text-anchor="start" x="1336.98" y="-1381.32" font-family="Helvetica,sans-Serif" font-weight="bold" font-size="32.00" fill="#29235c">id</text>
<text text-anchor="start" x="1361.87" y="-1381.32" font-family="Helvetica,sans-Serif" font-size="32.00" fill="#29235c"> &#160;&#160;&#160;</text>
<text text-anchor="start" x="1593.46" y="-1381.32" font-family="Helvetica,sans-Serif" font-style="italic" font-size="32.00" fill="#29235c">serial</text>
<text text-anchor="start" x="1669.89" y="-1381.32" font-family="Helvetica,sans-Serif" font-size="32.00" fill="#29235c"> </text>
<text text-anchor="start" x="1678.78" y="-1381.32" font-family="Helvetica,sans-Serif" font-weight="bold" font-size="32.00" fill="#29235c">(!)</text>
<polygon fill="#e7e2dd" stroke="transparent" points="1325.98,-1300.12 1325.98,-1360.12 1719.98,-1360.12 1719.98,-1300.12 1325.98,-1300.12"/>
<polygon fill="none" stroke="#29235c" points="1325.98,-1300.12 1325.98,-1360.12 1719.98,-1360.12 1719.98,-1300.12 1325.98,-1300.12"/>
<text text-anchor="start" x="1336.98" y="-1320.32" font-family="Helvetica,sans-Serif" font-size="32.00" fill="#29235c">name &#160;&#160;&#160;</text>
<text text-anchor="start" x="1488.55" y="-1321.32" font-family="Helvetica,sans-Serif" font-style="italic" font-size="32.00" fill="#29235c">varchar(255)</text>
<text text-anchor="start" x="1669.89" y="-1321.32" font-family="Helvetica,sans-Serif" font-size="32.00" fill="#29235c"> </text>
<text text-anchor="start" x="1678.78" y="-1321.32" font-family="Helvetica,sans-Serif" font-weight="bold" font-size="32.00" fill="#29235c">(!)</text>
<polygon fill="#e7e2dd" stroke="transparent" points="1325.98,-1240.12 1325.98,-1300.12 1719.98,-1300.12 1719.98,-1240.12 1325.98,-1240.12"/>
<polygon fill="none" stroke="#29235c" points="1325.98,-1240.12 1325.98,-1300.12 1719.98,-1300.12 1719.98,-1240.12 1325.98,-1240.12"/>
<text text-anchor="start" x="1336.98" y="-1260.32" font-family="Helvetica,sans-Serif" font-size="32.00" fill="#29235c">room &#160;&#160;&#160;</text>
<text text-anchor="start" x="1488.55" y="-1261.32" font-family="Helvetica,sans-Serif" font-style="italic" font-size="32.00" fill="#29235c">varchar(255)</text>
<text text-anchor="start" x="1669.89" y="-1261.32" font-family="Helvetica,sans-Serif" font-size="32.00" fill="#29235c"> </text>
<text text-anchor="start" x="1678.78" y="-1261.32" font-family="Helvetica,sans-Serif" font-weight="bold" font-size="32.00" fill="#29235c">(!)</text>
<polygon fill="#e7e2dd" stroke="transparent" points="1325.98,-1180.12 1325.98,-1240.12 1719.98,-1240.12 1719.98,-1180.12 1325.98,-1180.12"/>
<polygon fill="none" stroke="#29235c" points="1325.98,-1180.12 1325.98,-1240.12 1719.98,-1240.12 1719.98,-1180.12 1325.98,-1180.12"/>
<text text-anchor="start" x="1336.98" y="-1200.32" font-family="Helvetica,sans-Serif" font-size="32.00" fill="#29235c">description &#160;&#160;&#160;</text>
<text text-anchor="start" x="1618.32" y="-1201.32" font-family="Helvetica,sans-Serif" font-style="italic" font-size="32.00" fill="#29235c">text</text>
<text text-anchor="start" x="1669.89" y="-1201.32" font-family="Helvetica,sans-Serif" font-size="32.00" fill="#29235c"> </text>
<text text-anchor="start" x="1678.78" y="-1201.32" font-family="Helvetica,sans-Serif" font-weight="bold" font-size="32.00" fill="#29235c">(!)</text>
<polygon fill="#e7e2dd" stroke="transparent" points="1325.98,-1120.12 1325.98,-1180.12 1719.98,-1180.12 1719.98,-1120.12 1325.98,-1120.12"/>
<polygon fill="none" stroke="#29235c" points="1325.98,-1120.12 1325.98,-1180.12 1719.98,-1180.12 1719.98,-1120.12 1325.98,-1120.12"/>
<text text-anchor="start" x="1336.72" y="-1140.32" font-family="Helvetica,sans-Serif" font-size="32.00" fill="#29235c">conference_id &#160;&#160;&#160;</text>
<text text-anchor="start" x="1572.54" y="-1141.32" font-family="Helvetica,sans-Serif" font-style="italic" font-size="32.00" fill="#29235c">integer</text>
<text text-anchor="start" x="1670.34" y="-1141.32" font-family="Helvetica,sans-Serif" font-size="32.00" fill="#29235c"> </text>
<text text-anchor="start" x="1679.23" y="-1141.32" font-family="Helvetica,sans-Serif" font-weight="bold" font-size="32.00" fill="#29235c">(!)</text>
<polygon fill="none" stroke="#29235c" stroke-width="2" points="1324.98,-1119.12 1324.98,-1481.12 1720.98,-1481.12 1720.98,-1119.12 1324.98,-1119.12"/>
</g>
<!-- article&#45;&gt;track -->
<!-- article&#45;&gt;track -->
<g id="edge8" class="edge">
<title>article:e&#45;&gt;track:w</title>
<path fill="none" stroke="#29235c" stroke-width="3" d="M1107.98,-1105.12C1263.61,-1105.12 1170.2,-1377.46 1314.64,-1389.69"/>
<polygon fill="#29235c" stroke="#29235c" stroke-width="3" points="1314.85,-1393.2 1324.98,-1390.12 1315.14,-1386.21 1314.85,-1393.2"/>
<text text-anchor="middle" x="1316.09" y="-1399.72" font-family="Helvetica,sans-Serif" font-size="32.00" fill="#29235c">1</text>
<text text-anchor="middle" x="1101.76" y="-1076.32" font-family="Helvetica,sans-Serif" font-size="32.00" fill="#29235c">*</text>
</g>
<!-- article_questions -->
<g id="article_questions" class="node">
<title>article_questions</title>
<ellipse fill="none" stroke="black" stroke-width="0" cx="289.21" cy="-963.12" rx="289.41" ry="299.63"/>
<polygon fill="#1d71b8" stroke="transparent" points="87.21,-1113.12 87.21,-1173.12 492.21,-1173.12 492.21,-1113.12 87.21,-1113.12"/>
<polygon fill="none" stroke="#29235c" points="87.21,-1113.12 87.21,-1173.12 492.21,-1173.12 492.21,-1113.12 87.21,-1113.12"/>
<text text-anchor="start" x="107.43" y="-1134.32" font-family="Helvetica,sans-Serif" font-weight="bold" font-size="32.00" fill="#ffffff"> &#160;&#160;&#160;&#160;&#160;&#160;article_questions &#160;&#160;&#160;&#160;&#160;&#160;</text>
<polygon fill="#e7e2dd" stroke="transparent" points="87.21,-1053.12 87.21,-1113.12 492.21,-1113.12 492.21,-1053.12 87.21,-1053.12"/>
<polygon fill="none" stroke="#29235c" points="87.21,-1053.12 87.21,-1113.12 492.21,-1113.12 492.21,-1053.12 87.21,-1053.12"/>
<text text-anchor="start" x="98.21" y="-1074.32" font-family="Helvetica,sans-Serif" font-weight="bold" font-size="32.00" fill="#29235c">id</text>
<text text-anchor="start" x="123.1" y="-1074.32" font-family="Helvetica,sans-Serif" font-size="32.00" fill="#29235c"> &#160;&#160;&#160;</text>
<text text-anchor="start" x="365.68" y="-1074.32" font-family="Helvetica,sans-Serif" font-style="italic" font-size="32.00" fill="#29235c">serial</text>
<text text-anchor="start" x="442.12" y="-1074.32" font-family="Helvetica,sans-Serif" font-size="32.00" fill="#29235c"> </text>
<text text-anchor="start" x="451.01" y="-1074.32" font-family="Helvetica,sans-Serif" font-weight="bold" font-size="32.00" fill="#29235c">(!)</text>
<polygon fill="#e7e2dd" stroke="transparent" points="87.21,-993.12 87.21,-1053.12 492.21,-1053.12 492.21,-993.12 87.21,-993.12"/>
<polygon fill="none" stroke="#29235c" points="87.21,-993.12 87.21,-1053.12 492.21,-1053.12 492.21,-993.12 87.21,-993.12"/>
<text text-anchor="start" x="98.21" y="-1013.32" font-family="Helvetica,sans-Serif" font-size="32.00" fill="#29235c">question &#160;&#160;&#160;</text>
<text text-anchor="start" x="390.54" y="-1014.32" font-family="Helvetica,sans-Serif" font-style="italic" font-size="32.00" fill="#29235c">text</text>
<text text-anchor="start" x="442.12" y="-1014.32" font-family="Helvetica,sans-Serif" font-size="32.00" fill="#29235c"> </text>
<text text-anchor="start" x="451.01" y="-1014.32" font-family="Helvetica,sans-Serif" font-weight="bold" font-size="32.00" fill="#29235c">(!)</text>
<polygon fill="#e7e2dd" stroke="transparent" points="87.21,-933.12 87.21,-993.12 492.21,-993.12 492.21,-933.12 87.21,-933.12"/>
<polygon fill="none" stroke="#29235c" points="87.21,-933.12 87.21,-993.12 492.21,-993.12 492.21,-933.12 87.21,-933.12"/>
<text text-anchor="start" x="98.21" y="-953.32" font-family="Helvetica,sans-Serif" font-size="32.00" fill="#29235c">answer &#160;&#160;&#160;</text>
<text text-anchor="start" x="429.63" y="-954.32" font-family="Helvetica,sans-Serif" font-style="italic" font-size="32.00" fill="#29235c">text</text>
<polygon fill="#e7e2dd" stroke="transparent" points="87.21,-873.12 87.21,-933.12 492.21,-933.12 492.21,-873.12 87.21,-873.12"/>
<polygon fill="none" stroke="#29235c" points="87.21,-873.12 87.21,-933.12 492.21,-933.12 492.21,-873.12 87.21,-873.12"/>
<text text-anchor="start" x="97.74" y="-893.32" font-family="Helvetica,sans-Serif" font-size="32.00" fill="#29235c">status &#160;&#160;&#160;</text>
<text text-anchor="start" x="218.12" y="-894.32" font-family="Helvetica,sans-Serif" font-style="italic" font-size="32.00" fill="#29235c">question_status</text>
<text text-anchor="start" x="442.21" y="-894.32" font-family="Helvetica,sans-Serif" font-size="32.00" fill="#29235c"> </text>
<text text-anchor="start" x="451.1" y="-894.32" font-family="Helvetica,sans-Serif" font-weight="bold" font-size="32.00" fill="#29235c">(!)</text>
<polygon fill="#e7e2dd" stroke="transparent" points="87.21,-813.12 87.21,-873.12 492.21,-873.12 492.21,-813.12 87.21,-813.12"/>
<polygon fill="none" stroke="#29235c" points="87.21,-813.12 87.21,-873.12 492.21,-873.12 492.21,-813.12 87.21,-813.12"/>
<text text-anchor="start" x="98.21" y="-833.32" font-family="Helvetica,sans-Serif" font-size="32.00" fill="#29235c">article_id &#160;&#160;&#160;</text>
<text text-anchor="start" x="344.31" y="-834.32" font-family="Helvetica,sans-Serif" font-style="italic" font-size="32.00" fill="#29235c">integer</text>
<text text-anchor="start" x="442.12" y="-834.32" font-family="Helvetica,sans-Serif" font-size="32.00" fill="#29235c"> </text>
<text text-anchor="start" x="451.01" y="-834.32" font-family="Helvetica,sans-Serif" font-weight="bold" font-size="32.00" fill="#29235c">(!)</text>
<polygon fill="#e7e2dd" stroke="transparent" points="87.21,-753.12 87.21,-813.12 492.21,-813.12 492.21,-753.12 87.21,-753.12"/>
<polygon fill="none" stroke="#29235c" points="87.21,-753.12 87.21,-813.12 492.21,-813.12 492.21,-753.12 87.21,-753.12"/>
<text text-anchor="start" x="98.21" y="-773.32" font-family="Helvetica,sans-Serif" font-size="32.00" fill="#29235c">user_id &#160;&#160;&#160;</text>
<text text-anchor="start" x="344.31" y="-774.32" font-family="Helvetica,sans-Serif" font-style="italic" font-size="32.00" fill="#29235c">integer</text>
<text text-anchor="start" x="442.12" y="-774.32" font-family="Helvetica,sans-Serif" font-size="32.00" fill="#29235c"> </text>
<text text-anchor="start" x="451.01" y="-774.32" font-family="Helvetica,sans-Serif" font-weight="bold" font-size="32.00" fill="#29235c">(!)</text>
<polygon fill="none" stroke="#29235c" stroke-width="2" points="85.71,-752.12 85.71,-1174.12 492.71,-1174.12 492.71,-752.12 85.71,-752.12"/>
</g>
<!-- article_questions&#45;&gt;question_status -->
<g id="edge15" class="edge">
<title>article_questions:e&#45;&gt;question_status:w</title>
<path fill="none" stroke="#29235c" stroke-width="3" d="M493.21,-903.12C596.7,-903.12 620.5,-872.12 723.98,-872.12"/>
</g>
<!-- article_questions&#45;&gt;article -->
<!-- article_questions&#45;&gt;article -->
<g id="edge2" class="edge">
<title>article_questions:e&#45;&gt;article:w</title>
<path fill="none" stroke="#29235c" stroke-width="3" d="M493.21,-843.12C648.79,-843.12 557.16,-1494.82 701.64,-1524.1"/>
<polygon fill="#29235c" stroke="#29235c" stroke-width="3" points="701.69,-1527.62 711.98,-1525.12 702.37,-1520.66 701.69,-1527.62"/>
<text text-anchor="middle" x="703.09" y="-1534.72" font-family="Helvetica,sans-Serif" font-size="32.00" fill="#29235c">1</text>
<text text-anchor="middle" x="499.43" y="-814.32" font-family="Helvetica,sans-Serif" font-size="32.00" fill="#29235c">*</text>
</g>
<!-- user -->
<g id="user" class="node">
<title>user</title>
<ellipse fill="none" stroke="black" stroke-width="0" cx="909.98" cy="-407.12" rx="295.64" ry="257.27"/>
<polygon fill="#1d71b8" stroke="transparent" points="702.98,-527.12 702.98,-587.12 1116.98,-587.12 1116.98,-527.12 702.98,-527.12"/>
<polygon fill="none" stroke="#29235c" points="702.98,-527.12 702.98,-587.12 1116.98,-587.12 1116.98,-527.12 702.98,-527.12"/>
<text text-anchor="start" x="816.62" y="-548.32" font-family="Helvetica,sans-Serif" font-weight="bold" font-size="32.00" fill="#ffffff"> &#160;&#160;&#160;&#160;&#160;&#160;user &#160;&#160;&#160;&#160;&#160;&#160;</text>
<polygon fill="#e7e2dd" stroke="transparent" points="702.98,-467.12 702.98,-527.12 1116.98,-527.12 1116.98,-467.12 702.98,-467.12"/>
<polygon fill="none" stroke="#29235c" points="702.98,-467.12 702.98,-527.12 1116.98,-527.12 1116.98,-467.12 702.98,-467.12"/>
<text text-anchor="start" x="713.98" y="-488.32" font-family="Helvetica,sans-Serif" font-weight="bold" font-size="32.00" fill="#29235c">id</text>
<text text-anchor="start" x="738.87" y="-488.32" font-family="Helvetica,sans-Serif" font-size="32.00" fill="#29235c"> &#160;&#160;&#160;</text>
<text text-anchor="start" x="990.46" y="-488.32" font-family="Helvetica,sans-Serif" font-style="italic" font-size="32.00" fill="#29235c">serial</text>
<text text-anchor="start" x="1066.89" y="-488.32" font-family="Helvetica,sans-Serif" font-size="32.00" fill="#29235c"> </text>
<text text-anchor="start" x="1075.79" y="-488.32" font-family="Helvetica,sans-Serif" font-weight="bold" font-size="32.00" fill="#29235c">(!)</text>
<polygon fill="#e7e2dd" stroke="transparent" points="702.98,-407.12 702.98,-467.12 1116.98,-467.12 1116.98,-407.12 702.98,-407.12"/>
<polygon fill="none" stroke="#29235c" points="702.98,-407.12 702.98,-467.12 1116.98,-467.12 1116.98,-407.12 702.98,-407.12"/>
<text text-anchor="start" x="713.98" y="-427.32" font-family="Helvetica,sans-Serif" font-size="32.00" fill="#29235c">name &#160;&#160;&#160;</text>
<text text-anchor="start" x="885.55" y="-428.32" font-family="Helvetica,sans-Serif" font-style="italic" font-size="32.00" fill="#29235c">varchar(255)</text>
<text text-anchor="start" x="1066.89" y="-428.32" font-family="Helvetica,sans-Serif" font-size="32.00" fill="#29235c"> </text>
<text text-anchor="start" x="1075.79" y="-428.32" font-family="Helvetica,sans-Serif" font-weight="bold" font-size="32.00" fill="#29235c">(!)</text>
<polygon fill="#e7e2dd" stroke="transparent" points="702.98,-347.12 702.98,-407.12 1116.98,-407.12 1116.98,-347.12 702.98,-347.12"/>
<polygon fill="none" stroke="#29235c" points="702.98,-347.12 702.98,-407.12 1116.98,-407.12 1116.98,-347.12 702.98,-347.12"/>
<text text-anchor="start" x="713.74" y="-367.32" font-family="Helvetica,sans-Serif" font-size="32.00" fill="#29235c">password &#160;&#160;&#160;</text>
<text text-anchor="start" x="885.77" y="-368.32" font-family="Helvetica,sans-Serif" font-style="italic" font-size="32.00" fill="#29235c">varchar(255)</text>
<text text-anchor="start" x="1067.11" y="-368.32" font-family="Helvetica,sans-Serif" font-size="32.00" fill="#29235c"> </text>
<text text-anchor="start" x="1076" y="-368.32" font-family="Helvetica,sans-Serif" font-weight="bold" font-size="32.00" fill="#29235c">(!)</text>
<polygon fill="#e7e2dd" stroke="transparent" points="702.98,-287.12 702.98,-347.12 1116.98,-347.12 1116.98,-287.12 702.98,-287.12"/>
<polygon fill="none" stroke="#29235c" points="702.98,-287.12 702.98,-347.12 1116.98,-347.12 1116.98,-287.12 702.98,-287.12"/>
<text text-anchor="start" x="713.98" y="-307.32" font-family="Helvetica,sans-Serif" font-size="32.00" fill="#29235c">email &#160;&#160;&#160;</text>
<text text-anchor="start" x="885.55" y="-308.32" font-family="Helvetica,sans-Serif" font-style="italic" font-size="32.00" fill="#29235c">varchar(255)</text>
<text text-anchor="start" x="1066.89" y="-308.32" font-family="Helvetica,sans-Serif" font-size="32.00" fill="#29235c"> </text>
<text text-anchor="start" x="1075.79" y="-308.32" font-family="Helvetica,sans-Serif" font-weight="bold" font-size="32.00" fill="#29235c">(!)</text>
<polygon fill="#e7e2dd" stroke="transparent" points="702.98,-227.12 702.98,-287.12 1116.98,-287.12 1116.98,-227.12 702.98,-227.12"/>
<polygon fill="none" stroke="#29235c" points="702.98,-227.12 702.98,-287.12 1116.98,-287.12 1116.98,-227.12 702.98,-227.12"/>
<text text-anchor="start" x="713.98" y="-247.32" font-family="Helvetica,sans-Serif" font-size="32.00" fill="#29235c">role &#160;&#160;&#160;</text>
<text text-anchor="start" x="1013.56" y="-248.32" font-family="Helvetica,sans-Serif" font-style="italic" font-size="32.00" fill="#29235c">role</text>
<text text-anchor="start" x="1066.89" y="-248.32" font-family="Helvetica,sans-Serif" font-size="32.00" fill="#29235c"> </text>
<text text-anchor="start" x="1075.79" y="-248.32" font-family="Helvetica,sans-Serif" font-weight="bold" font-size="32.00" fill="#29235c">(!)</text>
<polygon fill="none" stroke="#29235c" stroke-width="2" points="701.98,-226.12 701.98,-588.12 1117.98,-588.12 1117.98,-226.12 701.98,-226.12"/>
</g>
<!-- article_questions&#45;&gt;user -->
<!-- article_questions&#45;&gt;user -->
<g id="edge4" class="edge">
<title>article_questions:e&#45;&gt;user:w</title>
<path fill="none" stroke="#29235c" stroke-width="3" d="M493.21,-783.12C647.05,-783.12 549.24,-509.82 691.77,-497.54"/>
<polygon fill="#29235c" stroke="#29235c" stroke-width="3" points="692.14,-501.03 701.98,-497.12 691.85,-494.04 692.14,-501.03"/>
<text text-anchor="middle" x="693.09" y="-468.32" font-family="Helvetica,sans-Serif" font-size="32.00" fill="#29235c">1</text>
<text text-anchor="middle" x="499.43" y="-754.32" font-family="Helvetica,sans-Serif" font-size="32.00" fill="#29235c">*</text>
</g>
<!-- questions -->
<g id="questions" class="node">
<title>questions</title>
<ellipse fill="none" stroke="black" stroke-width="0" cx="289.21" cy="-345.12" rx="289.41" ry="299.63"/>
<polygon fill="#1d71b8" stroke="transparent" points="87.21,-495.12 87.21,-555.12 492.21,-555.12 492.21,-495.12 87.21,-495.12"/>
<polygon fill="none" stroke="#29235c" points="87.21,-495.12 87.21,-555.12 492.21,-555.12 492.21,-495.12 87.21,-495.12"/>
<text text-anchor="start" x="158.99" y="-516.32" font-family="Helvetica,sans-Serif" font-weight="bold" font-size="32.00" fill="#ffffff"> &#160;&#160;&#160;&#160;&#160;&#160;questions &#160;&#160;&#160;&#160;&#160;&#160;</text>
<polygon fill="#e7e2dd" stroke="transparent" points="87.21,-435.12 87.21,-495.12 492.21,-495.12 492.21,-435.12 87.21,-435.12"/>
<polygon fill="none" stroke="#29235c" points="87.21,-435.12 87.21,-495.12 492.21,-495.12 492.21,-435.12 87.21,-435.12"/>
<text text-anchor="start" x="98.21" y="-456.32" font-family="Helvetica,sans-Serif" font-weight="bold" font-size="32.00" fill="#29235c">id</text>
<text text-anchor="start" x="123.1" y="-456.32" font-family="Helvetica,sans-Serif" font-size="32.00" fill="#29235c"> &#160;&#160;&#160;</text>
<text text-anchor="start" x="365.68" y="-456.32" font-family="Helvetica,sans-Serif" font-style="italic" font-size="32.00" fill="#29235c">serial</text>
<text text-anchor="start" x="442.12" y="-456.32" font-family="Helvetica,sans-Serif" font-size="32.00" fill="#29235c"> </text>
<text text-anchor="start" x="451.01" y="-456.32" font-family="Helvetica,sans-Serif" font-weight="bold" font-size="32.00" fill="#29235c">(!)</text>
<polygon fill="#e7e2dd" stroke="transparent" points="87.21,-375.12 87.21,-435.12 492.21,-435.12 492.21,-375.12 87.21,-375.12"/>
<polygon fill="none" stroke="#29235c" points="87.21,-375.12 87.21,-435.12 492.21,-435.12 492.21,-375.12 87.21,-375.12"/>
<text text-anchor="start" x="98.21" y="-395.32" font-family="Helvetica,sans-Serif" font-size="32.00" fill="#29235c">question &#160;&#160;&#160;</text>
<text text-anchor="start" x="390.54" y="-396.32" font-family="Helvetica,sans-Serif" font-style="italic" font-size="32.00" fill="#29235c">text</text>
<text text-anchor="start" x="442.12" y="-396.32" font-family="Helvetica,sans-Serif" font-size="32.00" fill="#29235c"> </text>
<text text-anchor="start" x="451.01" y="-396.32" font-family="Helvetica,sans-Serif" font-weight="bold" font-size="32.00" fill="#29235c">(!)</text>
<polygon fill="#e7e2dd" stroke="transparent" points="87.21,-315.12 87.21,-375.12 492.21,-375.12 492.21,-315.12 87.21,-315.12"/>
<polygon fill="none" stroke="#29235c" points="87.21,-315.12 87.21,-375.12 492.21,-375.12 492.21,-315.12 87.21,-315.12"/>
<text text-anchor="start" x="98.21" y="-335.32" font-family="Helvetica,sans-Serif" font-size="32.00" fill="#29235c">answer &#160;&#160;&#160;</text>
<text text-anchor="start" x="429.63" y="-336.32" font-family="Helvetica,sans-Serif" font-style="italic" font-size="32.00" fill="#29235c">text</text>
<polygon fill="#e7e2dd" stroke="transparent" points="87.21,-255.12 87.21,-315.12 492.21,-315.12 492.21,-255.12 87.21,-255.12"/>
<polygon fill="none" stroke="#29235c" points="87.21,-255.12 87.21,-315.12 492.21,-315.12 492.21,-255.12 87.21,-255.12"/>
<text text-anchor="start" x="97.74" y="-275.32" font-family="Helvetica,sans-Serif" font-size="32.00" fill="#29235c">status &#160;&#160;&#160;</text>
<text text-anchor="start" x="218.12" y="-276.32" font-family="Helvetica,sans-Serif" font-style="italic" font-size="32.00" fill="#29235c">question_status</text>
<text text-anchor="start" x="442.21" y="-276.32" font-family="Helvetica,sans-Serif" font-size="32.00" fill="#29235c"> </text>
<text text-anchor="start" x="451.1" y="-276.32" font-family="Helvetica,sans-Serif" font-weight="bold" font-size="32.00" fill="#29235c">(!)</text>
<polygon fill="#e7e2dd" stroke="transparent" points="87.21,-195.12 87.21,-255.12 492.21,-255.12 492.21,-195.12 87.21,-195.12"/>
<polygon fill="none" stroke="#29235c" points="87.21,-195.12 87.21,-255.12 492.21,-255.12 492.21,-195.12 87.21,-195.12"/>
<text text-anchor="start" x="98.21" y="-215.32" font-family="Helvetica,sans-Serif" font-size="32.00" fill="#29235c">conference_id &#160;&#160;&#160;</text>
<text text-anchor="start" x="344.31" y="-216.32" font-family="Helvetica,sans-Serif" font-style="italic" font-size="32.00" fill="#29235c">integer</text>
<text text-anchor="start" x="442.12" y="-216.32" font-family="Helvetica,sans-Serif" font-size="32.00" fill="#29235c"> </text>
<text text-anchor="start" x="451.01" y="-216.32" font-family="Helvetica,sans-Serif" font-weight="bold" font-size="32.00" fill="#29235c">(!)</text>
<polygon fill="#e7e2dd" stroke="transparent" points="87.21,-135.12 87.21,-195.12 492.21,-195.12 492.21,-135.12 87.21,-135.12"/>
<polygon fill="none" stroke="#29235c" points="87.21,-135.12 87.21,-195.12 492.21,-195.12 492.21,-135.12 87.21,-135.12"/>
<text text-anchor="start" x="98.21" y="-155.32" font-family="Helvetica,sans-Serif" font-size="32.00" fill="#29235c">user_id &#160;&#160;&#160;</text>
<text text-anchor="start" x="344.31" y="-156.32" font-family="Helvetica,sans-Serif" font-style="italic" font-size="32.00" fill="#29235c">integer</text>
<text text-anchor="start" x="442.12" y="-156.32" font-family="Helvetica,sans-Serif" font-size="32.00" fill="#29235c"> </text>
<text text-anchor="start" x="451.01" y="-156.32" font-family="Helvetica,sans-Serif" font-weight="bold" font-size="32.00" fill="#29235c">(!)</text>
<polygon fill="none" stroke="#29235c" stroke-width="2" points="85.71,-134.12 85.71,-556.12 492.71,-556.12 492.71,-134.12 85.71,-134.12"/>
</g>
<!-- questions&#45;&gt;question_status -->
<g id="edge16" class="edge">
<title>questions:e&#45;&gt;question_status:w</title>
<path fill="none" stroke="#29235c" stroke-width="3" d="M493.21,-285.12C673.87,-285.12 543.55,-506.93 614.41,-673.12 654.01,-765.99 623.02,-872.12 723.98,-872.12"/>
</g>
<!-- questions&#45;&gt;conference -->
<!-- questions&#45;&gt;conference -->
<g id="edge10" class="edge">
<title>questions:e&#45;&gt;conference:w</title>
<path fill="none" stroke="#29235c" stroke-width="3" d="M493.21,-225.12C568.7,-225.12 544.54,-134.69 614.41,-106.12 859.19,-6.04 1608.41,71.41 1804.41,-106.12 2014.33,-296.26 1653.97,-1363.6 1921.5,-1389.63"/>
<polygon fill="#29235c" stroke="#29235c" stroke-width="3" points="1921.56,-1393.14 1931.71,-1390.12 1921.89,-1386.15 1921.56,-1393.14"/>
<text text-anchor="middle" x="1940.6" y="-1399.72" font-family="Helvetica,sans-Serif" font-size="32.00" fill="#29235c">1</text>
<text text-anchor="middle" x="499.43" y="-196.32" font-family="Helvetica,sans-Serif" font-size="32.00" fill="#29235c">*</text>
</g>
<!-- questions&#45;&gt;user -->
<!-- questions&#45;&gt;user -->
<g id="edge12" class="edge">
<title>questions:e&#45;&gt;user:w</title>
<path fill="none" stroke="#29235c" stroke-width="3" d="M493.21,-165.12C663.94,-165.12 533.28,-483.64 691.65,-496.7"/>
<polygon fill="#29235c" stroke="#29235c" stroke-width="3" points="691.85,-500.21 701.98,-497.12 692.13,-493.22 691.85,-500.21"/>
<text text-anchor="middle" x="693.09" y="-506.72" font-family="Helvetica,sans-Serif" font-size="32.00" fill="#29235c">1</text>
<text text-anchor="middle" x="499.43" y="-136.32" font-family="Helvetica,sans-Serif" font-size="32.00" fill="#29235c">*</text>
</g>
<!-- track&#45;&gt;conference -->
<!-- track&#45;&gt;conference -->
<g id="edge14" class="edge">
<title>track:e&#45;&gt;conference:w</title>
<path fill="none" stroke="#29235c" stroke-width="3" d="M1720.98,-1150.12C1859.47,-1150.12 1793.21,-1378.54 1921.69,-1389.69"/>
<polygon fill="#29235c" stroke="#29235c" stroke-width="3" points="1921.57,-1393.19 1931.71,-1390.12 1921.87,-1386.2 1921.57,-1393.19"/>
<text text-anchor="middle" x="1922.82" y="-1361.32" font-family="Helvetica,sans-Serif" font-size="32.00" fill="#29235c">1</text>
<text text-anchor="middle" x="1714.76" y="-1121.32" font-family="Helvetica,sans-Serif" font-size="32.00" fill="#29235c">*</text>
</g>
<!-- user&#45;&gt;role -->
<g id="edge17" class="edge">
<title>user:e&#45;&gt;role:w</title>
<path fill="none" stroke="#29235c" stroke-width="3" d="M1117.98,-257.12C1258.47,-257.12 1282.5,-340.12 1422.98,-340.12"/>
</g>
</g>
</svg>
